<?xml version="1.0" encoding="iso-8859-1"?>
<!-- Generator: Adobe Illustrator 16.0.0, SVG Export Plug-In . SVG Version: 6.00 Build 0)  -->
<!DOCTYPE svg PUBLIC "-//W3C//DTD SVG 1.1//EN" "http://www.w3.org/Graphics/SVG/1.1/DTD/svg11.dtd">
<svg version="1.1" id="Layer_1" xmlns="http://www.w3.org/2000/svg" xmlns:xlink="http://www.w3.org/1999/xlink" x="0px" y="0px"
	 width="32.003px" height="31.992px" viewBox="0 0 32.003 31.992" style="enable-background:new 0 0 32.003 31.992;"
	 xml:space="preserve">
<g id="Bar_66_">
	<g>
		<path style="fill:#CCCCCC;" d="M30.153,0.001C30.151,0.001,30.15,0,30.148,0H1.855C1.853,0,1.852,0.001,1.85,0.001
			C0.828,0.004,0,0.807,0,1.797v3.195v25.145c0,1.024,0.831,1.855,1.855,1.855h28.293c1.024,0,1.855-0.831,1.855-1.855V4.992V1.797
			C32.003,0.807,31.175,0.004,30.153,0.001z"/>
	</g>
</g>
<g id="Container_65_">
	<g>
		<path style="fill:#FFFFFF;" d="M29.003,5.997h-26h-1v1v6v15.999c0,0.553,0.448,1.001,1,1.001h26c0.552,0,1-0.448,1-1.001V12.997
			v-6v-1H29.003z"/>
	</g>
</g>
<g id="Rounded_Rectangle_1">
	<g>
		<path style="fill-rule:evenodd;clip-rule:evenodd;fill:#88C057;" d="M15.23,20.688c0.195,0.194,0.448,0.285,0.703,0.292
			c0.03,0.003,0.055,0.018,0.085,0.018c0.191,0,0.359-0.067,0.512-0.16c0.055-0.028,0.106-0.065,0.156-0.104
			c0.015-0.014,0.033-0.021,0.047-0.036c0.01-0.008,0.021-0.014,0.03-0.022l2.944-2.923c0.406-0.403,0.406-1.058,0-1.461
			c-0.407-0.403-1.066-0.403-1.472,0l-1.213,1.204v-5.497c0-0.553-0.449-1-1.004-1c-0.554,0-1.004,0.447-1.004,1v5.545l-1.25-1.249
			c-0.405-0.405-1.061-0.405-1.466,0c-0.405,0.403-0.405,1.061,0,1.465L15.23,20.688z M21.003,22.998h-10c-0.552,0-1,0.446-1,0.999
			s0.448,1,1,1h10c0.552,0,1-0.447,1-1S21.555,22.998,21.003,22.998z"/>
	</g>
</g>
<g id="Btns_62_">
	<g>
		<path style="fill-rule:evenodd;clip-rule:evenodd;fill:#FFFFFF;" d="M23.003,1.997c-0.002,0-0.003,0.001-0.005,0.001H3.003
			c-0.552,0-1,0.447-1,1c0,0.552,0.448,1,1,1h20c0.552,0,1-0.448,1-1C24.003,2.445,23.555,1.997,23.003,1.997z M26.003,1.997
			c-0.552,0-1,0.448-1,1.001c0,0.552,0.448,1,1,1s1-0.448,1-1C27.003,2.445,26.555,1.997,26.003,1.997z M29.003,1.997
			c-0.552,0-1,0.448-1,1.001c0,0.552,0.448,1,1,1s1-0.448,1-1C30.003,2.445,29.555,1.997,29.003,1.997z"/>
	</g>
</g>
<g>
</g>
<g>
</g>
<g>
</g>
<g>
</g>
<g>
</g>
<g>
</g>
<g>
</g>
<g>
</g>
<g>
</g>
<g>
</g>
<g>
</g>
<g>
</g>
<g>
</g>
<g>
</g>
<g>
</g>
</svg>
